<svg data-name="Layer 1" xmlns="http://www.w3.org/2000/svg" viewBox="0 0 202.774 265.132"><path d="M202.774 20.295v151.848H0V20.295A20.3 20.3 0 0 1 20.295 0h162.171a20.302 20.302 0 0 1 20.308 20.295z" fill="#000773"/><path d="M202.774 165.734c0 2.153-.076 4.293-.214 6.408a96.01 96.01 0 0 1-.58 6.069 97.246 97.246 0 0 1-1.774 9.833 95.538 95.538 0 0 1-4.558 14.34 91.732 91.732 0 0 1-4.52 9.618 102.588 102.588 0 0 1-148.889 34.46 100.911 100.911 0 0 1-19.099-17.5 99.464 99.464 0 0 1-13.458-20.787 97.003 97.003 0 0 1-7.554-22.12 95.612 95.612 0 0 1-1.914-13.912A98.273 98.273 0 0 1 0 165.734a97.381 97.381 0 0 1 6.836-35.957 100.296 100.296 0 0 1 43.398-49.869 79.32 79.32 0 0 1 4.08-2.203 85.53 85.53 0 0 1 4.582-2.228 102.179 102.179 0 0 1 26.766-7.932 82.408 82.408 0 0 1 5.049-.642h.012c1.524-.164 3.06-.29 4.62-.378 2.002-.113 4.017-.176 6.044-.176a102.5 102.5 0 0 1 42.919 9.33c34.534 15.837 58.468 50.208 58.468 90.055z" fill="#000773"/><path d="M144.306 71.209v58.568H0V36.486h109.583a34.726 34.726 0 0 1 34.723 34.723z" fill="#fff"/><path d="M128.335 115.406h12.193a3.78 3.78 0 0 1 3.78 3.78v36.13a9.877 9.877 0 0 1-9.876 9.877 9.877 9.877 0 0 1-9.877-9.876v-36.132a3.78 3.78 0 0 1 3.78-3.78zM102.874 115.406h12.194a3.78 3.78 0 0 1 3.78 3.78v36.13a9.877 9.877 0 0 1-9.877 9.877 9.877 9.877 0 0 1-9.876-9.876v-36.132a3.78 3.78 0 0 1 3.78-3.78zM77.375 115.406h12.193a3.78 3.78 0 0 1 3.78 3.78v36.13a9.877 9.877 0 0 1-9.876 9.877 9.877 9.877 0 0 1-9.877-9.876v-36.132a3.78 3.78 0 0 1 3.78-3.78z" fill="#fff"/><circle cx="73.595" cy="75.947" r="23.704" fill="#000773"/><circle cx="73.595" cy="75.947" r="19.369" fill="#fff"/><circle cx="73.595" cy="75.947" r="14.717" fill="#000773"/><path d="M201.98 178.21a97.246 97.246 0 0 1-1.774 9.834c-.454-.101-.92-.202-1.385-.29-22.549-4.495-42.894.15-63 10.6-18.382 9.543-37.204 18.684-57.725 22.524-23.204 4.33-49.34.894-68.414-12.704a97.003 97.003 0 0 1-7.554-22.12c9.53 14.126 25.255 22.624 42.088 25.658 20.005 3.601 40.678-1.498 59.21-8.964 18.986-7.642 36.247-20.257 56.404-24.726a97.292 97.292 0 0 1 42.15.189z" fill="#fff"/><path d="M195.648 202.384a91.732 91.732 0 0 1-4.52 9.618c-18.658-1.56-35.944 3.135-53.054 12.011-18.369 9.543-37.204 18.684-57.725 22.524a101.835 101.835 0 0 1-38.11-.076 100.911 100.911 0 0 1-19.099-17.5 72.031 72.031 0 0 0 23.329 8.41c20.006 3.6 40.69-1.498 59.223-8.964 18.973-7.642 36.234-20.245 56.39-24.714a95.116 95.116 0 0 1 33.566-1.31z" fill="#fff"/></svg>